<svg width="22" height="28" viewBox="0 0 22 28" fill="none" xmlns="http://www.w3.org/2000/svg">
<path d="M21.175 0.800049H0.830506C0.610472 0.800794 0.399662 0.888533 0.244074 1.04412C0.0884847 1.19971 0.0007456 1.41052 0 1.63056V26.375C0.000973287 26.5945 0.0889609 26.8046 0.244658 26.9593C0.400355 27.1139 0.611046 27.2005 0.830506 27.2H21.175C21.2834 27.2002 21.3907 27.179 21.4909 27.1375C21.591 27.0961 21.6821 27.0354 21.7587 26.9587C21.8353 26.8821 21.8961 26.7911 21.9375 26.6909C21.9789 26.5908 22.0001 26.4834 22 26.375V1.63056C22.0005 1.41108 21.9139 1.20037 21.7593 1.04467C21.6046 0.888964 21.3945 0.800987 21.175 0.800049ZM9.9 22.822H4.4C4.1812 22.822 3.97135 22.7351 3.81664 22.5804C3.66192 22.4256 3.575 22.2158 3.575 21.997C3.575 21.7782 3.66192 21.5684 3.81664 21.4136C3.97135 21.2589 4.1812 21.172 4.4 21.172H9.9C10.9831 21.1889 10.9859 22.8047 9.9 22.822ZM9.9 16.772H4.4C4.1812 16.772 3.97135 16.6851 3.81664 16.5304C3.66192 16.3756 3.575 16.1658 3.575 15.947C3.575 15.7282 3.66192 15.5184 3.81664 15.3636C3.97135 15.2089 4.1812 15.122 4.4 15.122H9.9C10.9831 15.1389 10.9859 16.7547 9.9 16.772ZM12.122 10.15C12.1059 11.2334 10.4888 11.2354 10.472 10.15V5.87654C10.4731 5.18728 10.7476 4.52662 11.2354 4.03962C11.7231 3.55262 12.3842 3.27909 13.0735 3.27909C13.7627 3.27909 14.4238 3.55262 14.9116 4.03962C15.3994 4.52662 15.6739 5.18728 15.675 5.87654V10.15C15.6573 11.2341 14.0427 11.2353 14.025 10.15V8.98949H12.122V10.15ZM18.183 21.227L15.4771 23.933C15.4014 24.0109 15.3107 24.0725 15.2105 24.1141C15.1102 24.1557 15.0026 24.1764 14.894 24.175C14.7856 24.1754 14.6783 24.1542 14.5782 24.1126C14.4781 24.0711 14.3872 24.01 14.311 23.933L13.1669 22.789C12.4178 22.0129 13.5569 20.8633 14.333 21.623L14.894 22.1839L17.0169 20.061C17.8014 19.3115 18.9395 20.4529 18.183 21.227ZM18.183 15.177L15.4771 17.883C15.4014 17.9609 15.3107 18.0225 15.2105 18.0641C15.1102 18.1057 15.0026 18.1264 14.894 18.125C14.7856 18.1254 14.6783 18.1042 14.5782 18.0626C14.4781 18.0211 14.3872 17.96 14.311 17.883L13.1669 16.739C12.4178 15.9629 13.5569 14.8133 14.333 15.573L14.894 16.1339L17.0169 14.011C17.8014 13.2615 18.9395 14.4029 18.183 15.177Z" fill="currentColor"/>
<path d="M14.0246 5.8769C14.0239 5.62498 13.9234 5.38359 13.745 5.20568C13.5666 5.02777 13.325 4.92786 13.0731 4.92786C12.8211 4.92786 12.5795 5.02777 12.4011 5.20568C12.2228 5.38359 12.1222 5.62498 12.1216 5.8769V7.33986H14.0246V5.8769Z" fill="currentColor"/>
</svg>
