<svg width="32" height="32" viewBox="0 0 32 32" fill="none" xmlns="http://www.w3.org/2000/svg">
<path fill-rule="evenodd" clip-rule="evenodd" d="M6 28.08C6 28.588 6.407 29 6.909 29H25.091C25.593 29 26 28.588 26 28.08V6.92C26 6.412 25.593 6 25.091 6H6.909C6.407 6 6 6.412 6 6.92V28.08Z" fill="#F2F2F2"/>
<path fill-rule="evenodd" clip-rule="evenodd" d="M17.75 9.96997C17.336 9.96997 17 10.306 17 10.72V15.22C17 15.634 17.336 15.97 17.75 15.97H22.25C22.664 15.97 23 15.634 23 15.22V10.72C23 10.306 22.664 9.96997 22.25 9.96997H17.75Z" fill="#E9992A"/>
<!-- <path fill-rule="evenodd" clip-rule="evenodd" d="M17.75 10C17.336 10 17 10.336 17 10.75V15.25C17 15.664 17.336 16 17.75 16H22.25C22.664 16 23 15.664 23 15.25V10.75C23 10.336 22.664 10 22.25 10H17.75Z" fill="#B7B7B7"/> -->
<!-- <path fill-rule="evenodd" clip-rule="evenodd" d="M12.69 5.999L19.273 6L19.304 5.997C19.443 5.98 20 5.884 20 5.392C20 5.345 20 5.097 20 4.8C20 4.323 19.77 3.865 19.361 3.527C18.952 3.19 18.397 3 17.818 3C16.736 3 15.264 3 14.182 3C13.603 3 13.048 3.19 12.639 3.527C12.23 3.865 12 4.323 12 4.8V5.4C12 5.721 12.306 5.983 12.69 5.999Z" fill="currentColor"/> -->
<path fill-rule="evenodd" clip-rule="evenodd" d="M11 30H26C26.552 30 27 29.552 27 29V11C27 10.448 26.552 10 26 10C25.448 10 25 10.448 25 11V28H11C10.448 28 10 28.448 10 29C10 29.552 10.448 30 11 30ZM11 5H6C5.448 5 5 5.448 5 6V29C5 29.552 5.448 30 6 30H8C8.552 30 9 29.552 9 29C9 28.448 8.552 28 8 28H7V7H25V8C25 8.552 25.448 9 26 9C26.552 9 27 8.552 27 8V6C27 5.448 26.552 5 26 5H21C21 4.204 20.684 3.441 20.121 2.879C19.559 2.316 18.796 2 18 2H14C13.204 2 12.441 2.316 11.879 2.879C11.316 3.441 11 4.204 11 5ZM20 25H22C22.552 25 23 24.552 23 24C23 23.448 22.552 23 22 23H20C19.448 23 19 23.448 19 24C19 24.552 19.448 25 20 25ZM9 25H16C16.552 25 17 24.552 17 24C17 23.448 16.552 23 16 23H9C8.448 23 8 23.448 8 24C8 24.552 8.448 25 9 25ZM20 21H22C22.552 21 23 20.552 23 20C23 19.448 22.552 19 22 19H20C19.448 19 19 19.448 19 20C19 20.552 19.448 21 20 21ZM9 21H16C16.552 21 17 20.552 17 20C17 19.448 16.552 19 16 19H9C8.448 19 8 19.448 8 20C8 20.552 8.448 21 9 21ZM22.641 9H17C16.448 9 16 9.448 16 10V12C16 12.552 16.448 13 17 13C17.174 13 17.319 12.971 17.441 12.921L18.7 14.6C18.88 14.84 19.157 14.986 19.456 14.999C19.47 15 19.484 15 19.498 15H18C18 14.448 17.552 14 17 14C16.448 14 16 14.448 16 15V16C16 16.552 16.448 17 17 17H23C23.552 17 24 16.552 24 16V10.48L24.744 9.649C25.113 9.239 25.079 8.606 24.668 8.237C24.257 7.869 23.624 7.903 23.256 8.314L22.641 9ZM10 16H13C13.552 16 14 15.552 14 15C14 14.448 13.552 14 13 14H10C9.448 14 9 14.448 9 15C9 15.552 9.448 16 10 16ZM22 12.71L20.244 14.668C20.054 14.88 19.782 15 19.498 15H22V12.71ZM18 11C18.304 11 18.604 11.138 18.8 11.4L19.569 12.425L20.847 11H18ZM9 12H14C14.552 12 15 11.552 15 11C15 10.448 14.552 10 14 10H9C8.448 10 8 10.448 8 11C8 11.552 8.448 12 9 12ZM19 5H13C13 4.735 13.105 4.48 13.293 4.293C13.48 4.105 13.735 4 14 4H18C18.265 4 18.52 4.105 18.707 4.293C18.895 4.48 19 4.735 19 5Z" fill="currentColor"/>
</svg>
