<svg width="28" height="28" viewBox="0 0 28 28" fill="none" xmlns="http://www.w3.org/2000/svg">
<path d="M0.875 18.6523V20.291C0.874996 20.399 0.896263 20.5059 0.937588 20.6057C0.978912 20.7055 1.03948 20.7961 1.11584 20.8725C1.1922 20.9488 1.28286 21.0094 1.38263 21.0507C1.4824 21.092 1.58933 21.1133 1.69731 21.1133H5.8404L4.31887 25.2938C3.74516 27.0037 6.22906 27.9076 6.88836 26.229L7.35699 24.9415H20.6431L21.1116 26.229C21.7712 27.9079 24.2554 27.0032 23.6811 25.2938L22.1596 21.1133L19.2496 21.1133L20.0459 23.3009H7.95401L8.75026 21.1133H26.3028C26.4107 21.1133 26.5177 21.092 26.6174 21.0507C26.7172 21.0094 26.8078 20.9488 26.8842 20.8725C26.9605 20.7961 27.0211 20.7055 27.0624 20.6057C27.1037 20.5059 27.125 20.399 27.125 20.291V18.6523H0.875Z" fill="currentColor"/>
<path d="M13.4533 13.4595C13.4533 13.2413 13.54 13.0321 13.6942 12.8778C13.8485 12.7235 14.0578 12.6368 14.276 12.6369H22.4743C22.6925 12.6368 22.9017 12.7235 23.056 12.8778C23.2103 13.0321 23.297 13.2413 23.297 13.4595V17.0117H25.4844V1.69975C25.4844 1.48205 25.3979 1.27327 25.2439 1.11934C25.09 0.965401 24.8812 0.878916 24.6635 0.878906H3.33647C3.11877 0.878916 2.90999 0.965401 2.75606 1.11934C2.60212 1.27327 2.51563 1.48205 2.51562 1.69975V17.0117H13.4533V13.4595Z" fill="currentColor"/>
<path d="M21.6562 14.2773H15.0938V17.0117H21.6562V14.2773Z" fill="currentColor"/>
</svg>
