<svg width="30" height="36" viewBox="0 0 30 36" fill="none" xmlns="http://www.w3.org/2000/svg">
<path d="M28.6165 0.400146H1.49064C1.19726 0.401141 0.916181 0.518125 0.70873 0.725576C0.50128 0.933026 0.384295 1.2141 0.383301 1.50748V34.5C0.384598 34.7926 0.501915 35.0727 0.70951 35.2789C0.917105 35.4851 1.19802 35.6006 1.49064 35.5999H28.6165C28.761 35.6001 28.9041 35.5718 29.0377 35.5166C29.1712 35.4614 29.2925 35.3804 29.3947 35.2782C29.4969 35.176 29.5779 35.0547 29.6331 34.9211C29.6883 34.7876 29.7167 34.6445 29.7165 34.5V1.50748C29.7172 1.21486 29.6017 0.933909 29.3955 0.726304C29.1893 0.518699 28.9091 0.401398 28.6165 0.400146ZM13.5832 29.7626H6.24993C5.9582 29.7626 5.67841 29.6467 5.47212 29.4404C5.26583 29.2341 5.14994 28.9543 5.14994 28.6626C5.14994 28.3709 5.26583 28.0911 5.47212 27.8848C5.67841 27.6785 5.9582 27.5626 6.24993 27.5626H13.5832C15.0273 27.5851 15.0311 29.7395 13.5832 29.7626ZM13.5832 21.696H6.24993C5.9582 21.696 5.67841 21.5801 5.47212 21.3738C5.26583 21.1675 5.14994 20.8877 5.14994 20.596C5.14994 20.3042 5.26583 20.0244 5.47212 19.8182C5.67841 19.6119 5.9582 19.496 6.24993 19.496H13.5832C15.0273 19.5184 15.0311 21.6729 13.5832 21.696ZM16.5459 12.8667C16.5244 14.3112 14.3683 14.3139 14.3459 12.8667V7.16876C14.3473 6.24975 14.7134 5.36888 15.3637 4.71955C16.0141 4.07022 16.8955 3.70551 17.8145 3.70551C18.7335 3.70551 19.615 4.07022 20.2653 4.71955C20.9157 5.36888 21.2817 6.24975 21.2832 7.16876V12.8667C21.2595 14.3121 19.1068 14.3137 19.0832 12.8667V11.3193H16.5459V12.8667ZM24.6272 27.6359L21.0193 31.2439C20.9184 31.3477 20.7975 31.4299 20.6638 31.4854C20.5302 31.5409 20.3866 31.5685 20.2419 31.5666C20.0974 31.5671 19.9542 31.5388 19.8207 31.4834C19.6873 31.428 19.5662 31.3466 19.4645 31.2439L17.9391 29.7186C16.9403 28.6837 18.4591 27.151 19.4939 28.1639L20.2419 28.9118L23.0724 26.0813C24.1184 25.082 25.6359 26.6038 24.6272 27.6359ZM24.6272 19.5693L21.0193 23.1773C20.9184 23.2811 20.7975 23.3633 20.6638 23.4188C20.5302 23.4742 20.3866 23.5019 20.2419 23.5C20.0974 23.5005 19.9542 23.4722 19.8207 23.4168C19.6873 23.3614 19.5662 23.28 19.4645 23.1773L17.9391 21.652C16.9403 20.6171 18.4591 19.0844 19.4939 20.0973L20.2419 20.8452L23.0724 18.0147C24.1184 17.0154 25.6359 18.5372 24.6272 19.5693Z" fill="currentColor"/>
<path d="M19.0827 7.1692C19.0818 6.8333 18.9478 6.51145 18.71 6.27424C18.4721 6.03702 18.15 5.90381 17.8141 5.90381C17.4782 5.90381 17.156 6.03702 16.9181 6.27424C16.6803 6.51145 16.5463 6.8333 16.5454 7.1692V9.1198H19.0827V7.1692Z" fill="#161616"/>
</svg>
