<svg width="24" height="25" viewBox="0 0 24 25" fill="none" xmlns="http://www.w3.org/2000/svg">
<path d="M17.3333 6.33333H13V5C13 4.45333 13.4533 4 14 4H15.3333C16.9867 4 18.3333 2.65333 18.3333 1C18.3333 0.453333 17.88 0 17.3333 0C16.7867 0 16.3333 0.453333 16.3333 1C16.3333 1.54667 15.88 2 15.3333 2H14C12.3467 2 11 3.34667 11 5V6.33333H6.66667C2.66667 6.33333 0 9 0 14.3333V19.6667C0 22.3333 1.33333 25 4 25H4.33724C5.79191 25 7.15078 24.2706 7.95345 23.0573C7.95345 23.0573 9.296 21 12 21C14.704 21 16.0452 23.0693 16.0452 23.0693C16.8492 24.276 18.204 25 19.6533 25H20C22.6667 25 24 22.3333 24 19.6667V14.3333C24 9 21.3333 6.33333 17.3333 6.33333ZM9.33333 15.3333H7.66667V17C7.66667 17.552 7.21867 18 6.66667 18C6.11467 18 5.66667 17.552 5.66667 17V15.3333H4C3.448 15.3333 3 14.8853 3 14.3333C3 13.7813 3.448 13.3333 4 13.3333H5.66667V11.6667C5.66667 11.1147 6.11467 10.6667 6.66667 10.6667C7.21867 10.6667 7.66667 11.1147 7.66667 11.6667V13.3333H9.33333C9.88533 13.3333 10.3333 13.7813 10.3333 14.3333C10.3333 14.8853 9.88533 15.3333 9.33333 15.3333ZM15.6667 17.3333C14.9307 17.3333 14.3333 16.736 14.3333 16C14.3333 15.264 14.9307 14.6667 15.6667 14.6667C16.4027 14.6667 17 15.264 17 16C17 16.736 16.4027 17.3333 15.6667 17.3333ZM19 14.0013C18.264 14.0013 17.6667 13.404 17.6667 12.668C17.6667 11.932 18.264 11.3346 19 11.3346C19.736 11.3346 20.3333 11.932 20.3333 12.668C20.3333 13.404 19.736 14.0013 19 14.0013Z" fill="#161616"/>
</svg>
