<svg width="22" height="18" viewBox="0 0 22 18" fill="none" xmlns="http://www.w3.org/2000/svg">
<path d="M10.6978 2.39835L11 2.6276L11.3022 2.39835C12.626 1.39407 14.5966 1 16.5 1C17.6289 1 18.7951 1.14489 19.8458 1.47564C20.4746 1.68552 21.0109 1.92591 21.5 2.25736V16.5786C21.5 16.5787 21.4999 16.5788 21.4998 16.5789C21.4973 16.5824 21.4941 16.5863 21.4902 16.5902C21.4863 16.5941 21.4824 16.5973 21.4789 16.5998C21.4788 16.5999 21.4788 16.5999 21.4787 16.5999L21.469 16.5999L21.4686 16.5999C19.9775 15.8061 18.1964 15.5 16.5 15.5C15.5945 15.5 14.5118 15.6718 13.4882 15.9486C12.5969 16.1896 11.7208 16.5183 11.0258 16.9043C9.47198 15.8609 7.38255 15.5 5.5 15.5C4.00079 15.5 2.02273 15.9509 0.611333 16.6123C0.569224 16.6198 0.533853 16.6294 0.507223 16.6375C0.504451 16.6345 0.502079 16.6316 0.500152 16.6289C0.5001 16.6288 0.50005 16.6287 0.5 16.6286V2.25602C1.81767 1.35665 3.68928 1 5.5 1C7.40336 1 9.374 1.39407 10.6978 2.39835ZM19.8484 14.9765L20.5 15.1838V14.5V3V2.63439L20.1516 2.52354C18.9925 2.15473 17.7396 2 16.5 2C15.5945 2 14.5118 2.17177 13.4882 2.44859C12.4668 2.72481 11.4654 3.1161 10.7336 3.57688L10.5 3.72396V4V15.5V16.4057L11.2664 15.9231C11.8846 15.5339 12.7832 15.1752 13.7493 14.9139C14.7132 14.6532 15.7055 14.5 16.5 14.5C17.6604 14.5 18.8075 14.6453 19.8484 14.9765ZM18.5 6.15598C17.8633 6.05316 17.1893 6 16.5 6C14.9969 6 13.6209 6.23582 12.5 6.69464V6.167C13.6301 5.73614 14.9915 5.5 16.5 5.5C17.1807 5.5 17.8566 5.55878 18.5 5.66048V6.15598ZM18.5 8.81598C17.8633 8.71316 17.1893 8.66 16.5 8.66C14.9969 8.66 13.6209 8.89582 12.5 9.35464V8.82912C13.6328 8.40353 14.9948 8.16 16.5 8.16C17.1807 8.16 17.8566 8.21878 18.5 8.32048V8.81598ZM12.5 12.0246V11.497C13.6301 11.0661 14.9915 10.83 16.5 10.83C17.1849 10.83 17.8607 10.8826 18.5 10.9869V11.486C17.8633 11.3832 17.1893 11.33 16.5 11.33C14.9969 11.33 13.6209 11.5658 12.5 12.0246Z" fill="currentColor" stroke="currentColor"/>
</svg>
