<svg width="32" height="32" viewBox="0 0 32 32" fill="none" xmlns="http://www.w3.org/2000/svg">
<g clip-path="url(#clip0_796_25305)">
<path d="M32 23C31.998 18.027 27.971 14 23 14C22.975 14 22.951 14.003 22.926 14.004C23.608 12.826 24 11.459 24 10C24 5.582 20.418 2 16 2C11.582 2 8 5.582 8 10C8 14.26 11.332 17.732 15.531 17.977C15.112 18.599 14.778 19.281 14.523 20H4C0 20 0 24 0 24V32H32V24C32 24 32 23.207 32 23ZM29.883 23C29.874 26.799 26.799 29.874 23 29.883C19.199 29.874 16.124 26.799 16.115 23C16.124 19.199 19.199 16.124 23 16.116C26.799 16.124 29.874 19.199 29.883 23Z" fill="currentColor"/>
<path d="M22 28H24V22H22V28ZM22 18V20H24V18H22Z" fill="currentColor"/>
</g>
<defs>
<clipPath id="clip0_796_25305">
<rect width="32" height="32" fill="white"/>
</clipPath>
</defs>
</svg>
