<svg width="32" height="34" viewBox="0 0 32 34" fill="none" xmlns="http://www.w3.org/2000/svg">
<path d="M14.7842 6.83301V15.8896V17.2272V18.5654H23.255V15.8896H17.4593V6.83301H14.7842Z" fill="#161616"/>
<path d="M28.7539 21.0057C28.457 21.9407 28.063 22.8583 27.5421 23.739C23.8223 30.0463 15.6919 32.1409 9.38534 28.4198C8.51325 27.9042 7.73078 27.2996 7.02388 26.6335L10.2795 25.6905L5.00818 22.8696L1.96924 28.0948L3.99631 27.5076C5.10448 28.7883 6.42733 29.9172 7.96552 30.8241C15.5997 35.3283 25.4428 32.7917 29.9463 25.1569C30.8773 23.5805 31.5033 21.9073 31.8503 20.2079L28.7539 21.0057Z" fill="#161616"/>
<path d="M4.70363 10.2618C8.42539 3.95524 16.5551 1.85995 22.8617 5.58104C24.2086 6.37555 25.3449 7.3814 26.2905 8.51766L23.3445 9.61379L28.8968 12.0033L31.4528 6.59893L29.0472 7.49175C27.802 5.79505 26.2083 4.3137 24.2795 3.17678C16.6454 -1.3288 6.80427 1.20789 2.29936 8.84269C1.07081 10.9239 0.369931 13.1697 0.149902 15.4268L3.08184 14.6704C3.35202 13.1583 3.87635 11.6636 4.70363 10.2618Z" fill="#161616"/>
</svg>
